<?xml version="1.0" standalone="no"?><!-- Generator: Gravit.io --><svg xmlns="http://www.w3.org/2000/svg" xmlns:xlink="http://www.w3.org/1999/xlink" style="isolation:isolate" viewBox="0 0 36 32" width="36" height="32"><path d=" M 23.917 22.694 L 2.806 22.694 C 2.62 22.694 2.444 22.725 2.278 22.771 L 2.278 20.107 C 2.444 20.154 2.62 20.184 2.806 20.184 L 33.417 20.184 C 34.29 20.184 35 19.621 35 18.929 L 35 13.071 C 35 12.379 34.29 11.816 33.417 11.816 L 2.806 11.816 C 2.62 11.816 2.444 11.846 2.278 11.893 L 2.278 9.229 C 2.444 9.275 2.62 9.306 2.806 9.306 L 14.417 9.306 C 15.29 9.306 16 8.742 16 8.05 L 16 2.193 C 16 1.501 15.29 0.938 14.417 0.938 L 2.806 0.938 C 1.933 0.938 1.222 1.501 1.222 2.193 L 1.222 5.122 L 1.222 8.05 L 1.222 13.071 L 1.222 18.929 L 1.222 23.95 L 1.222 29.807 C 1.222 30.499 1.933 31.063 2.806 31.063 L 23.917 31.063 C 24.79 31.063 25.5 30.499 25.5 29.807 L 25.5 23.95 C 25.5 23.258 24.79 22.694 23.917 22.694 Z  M 2.278 5.122 L 2.278 2.193 C 2.278 1.963 2.514 1.774 2.806 1.774 L 14.417 1.774 C 14.708 1.774 14.944 1.963 14.944 2.193 L 14.944 8.05 C 14.944 8.28 14.708 8.469 14.417 8.469 L 2.806 8.469 C 2.514 8.469 2.278 8.28 2.278 8.05 L 2.278 5.122 Z  M 2.278 13.071 C 2.278 12.841 2.514 12.653 2.806 12.653 L 33.417 12.653 C 33.708 12.653 33.944 12.841 33.944 13.071 L 33.944 18.929 C 33.944 19.159 33.708 19.347 33.417 19.347 L 2.806 19.347 C 2.514 19.347 2.278 19.159 2.278 18.929 L 2.278 13.071 Z  M 23.917 30.226 L 2.806 30.226 C 2.514 30.226 2.278 30.037 2.278 29.807 L 2.278 23.95 C 2.278 23.72 2.514 23.531 2.806 23.531 L 23.917 23.531 C 24.208 23.531 24.444 23.72 24.444 23.95 L 24.444 29.807 C 24.444 30.037 24.208 30.226 23.917 30.226 Z " fill="rgb(130,130,130)"/></svg>
