<?xml version="1.0" standalone="no"?><!-- Generator: Gravit.io --><svg xmlns="http://www.w3.org/2000/svg" xmlns:xlink="http://www.w3.org/1999/xlink" style="isolation:isolate" viewBox="0 0 2000 2000" width="2000" height="2000"><defs><clipPath id="_clipPath_9SmhnzHcmekspFNVhlpyUOKme0XIUCSi"><rect width="2000" height="2000"/></clipPath></defs><g clip-path="url(#_clipPath_9SmhnzHcmekspFNVhlpyUOKme0XIUCSi)"><g id="Grupo"><g id="Grupo"><path d="M 589.6 213 L 1410.4 213 C 1467.026 213 1513 258.974 1513 315.6 L 1513 1713.4 C 1513 1770.026 1467.026 1816 1410.4 1816 L 589.6 1816 C 532.974 1816 487 1770.026 487 1713.4 L 487 315.6 C 487 258.974 532.974 213 589.6 213 Z" style="fill:none;stroke:#515050;stroke-width:40;stroke-linecap:square;stroke-miterlimit:3;"/><path d="M 582.678 422 L 1417.322 422 C 1470.128 422 1513 464.872 1513 517.678 L 1513 1720.322 C 1513 1773.128 1470.128 1816 1417.322 1816 L 582.678 1816 C 529.872 1816 487 1773.128 487 1720.322 L 487 517.678 C 487 464.872 529.872 422 582.678 422 Z" style="fill:none;stroke:#515050;stroke-width:40;stroke-linecap:square;stroke-miterlimit:3;"/><line x1="566" y1="236" x2="566" y2="421.212" vector-effect="non-scaling-stroke" stroke-width="15" stroke="rgb(81,80,80)" stroke-linejoin="miter" stroke-linecap="square" stroke-miterlimit="3"/><line x1="1402" y1="236" x2="1402" y2="419.697" vector-effect="non-scaling-stroke" stroke-width="15" stroke="rgb(81,80,80)" stroke-linejoin="miter" stroke-linecap="square" stroke-miterlimit="3"/></g><path d=" M 655.864 721.935 C 655.864 694.67 678 672.534 705.265 672.534 C 732.529 672.534 754.665 694.67 754.665 721.935 C 754.665 749.199 732.529 771.335 705.265 771.335 C 678 771.335 655.864 749.199 655.864 721.935 Z " fill="rgb(81,80,80)" vector-effect="non-scaling-stroke" stroke-width="15" stroke="rgb(81,80,80)" stroke-linejoin="miter" stroke-linecap="butt" stroke-miterlimit="3"/><path d=" M 1246.6 721.935 C 1246.6 694.67 1268.735 672.534 1296 672.534 C 1323.265 672.534 1345.4 694.67 1345.4 721.935 C 1345.4 749.199 1323.265 771.335 1296 771.335 C 1268.735 771.335 1246.6 749.199 1246.6 721.935 Z " fill="rgb(81,80,80)" vector-effect="non-scaling-stroke" stroke-width="15" stroke="rgb(81,80,80)" stroke-linejoin="miter" stroke-linecap="butt" stroke-miterlimit="3"/><path d=" M 618.065 684.957 C 618.065 662.328 636.437 643.957 659.065 643.957 C 681.694 643.957 700.065 662.328 700.065 684.957 C 700.065 707.585 681.694 725.957 659.065 725.957 C 636.437 725.957 618.065 707.585 618.065 684.957 Z " fill="rgb(255,255,255)"/><path d=" M 1205.6 684.957 C 1205.6 662.328 1223.971 643.957 1246.6 643.957 C 1269.228 643.957 1287.6 662.328 1287.6 684.957 C 1287.6 707.585 1269.228 725.957 1246.6 725.957 C 1223.971 725.957 1205.6 707.585 1205.6 684.957 Z " fill="rgb(255,255,255)"/><path d=" M 1195.065 721.935 C 1195.065 666.227 1240.293 621 1296 621 C 1351.707 621 1396.935 666.227 1396.935 721.935 C 1396.935 777.642 1351.707 822.869 1296 822.869 C 1240.293 822.869 1195.065 777.642 1195.065 721.935 Z " fill="none" vector-effect="non-scaling-stroke" stroke-width="15" stroke="rgb(81,80,80)" stroke-linejoin="miter" stroke-linecap="butt" stroke-miterlimit="3"/><g id="Grupo"><path d=" M 603.065 723.199 C 603.065 666.794 648.859 621 705.265 621 C 761.67 621 807.464 666.794 807.464 723.199 C 807.464 779.604 761.67 825.398 705.265 825.398 C 648.859 825.398 603.065 779.604 603.065 723.199 Z " fill="none" vector-effect="non-scaling-stroke" stroke-width="15" stroke="rgb(81,80,80)" stroke-linejoin="miter" stroke-linecap="butt" stroke-miterlimit="3"/><path d="M 619.805 813.662 L 619.805 813.662 C 629.044 813.662 636.544 824.447 636.544 837.73 L 636.544 1211.889 C 636.544 1225.172 629.044 1235.957 619.805 1235.957 L 619.805 1235.957 C 610.566 1235.957 603.065 1225.172 603.065 1211.889 L 603.065 837.73 C 603.065 824.447 610.566 813.662 619.805 813.662 Z" style="stroke:none;fill:#515050;stroke-linecap:square;stroke-miterlimit:3;"/><path d="M 619.805 813.662 L 619.805 813.662 C 629.044 813.662 636.544 824.447 636.544 837.73 L 636.544 1211.889 C 636.544 1225.172 629.044 1235.957 619.805 1235.957 L 619.805 1235.957 C 610.566 1235.957 603.065 1225.172 603.065 1211.889 L 603.065 837.73 C 603.065 824.447 610.566 813.662 619.805 813.662 Z" style="fill:none;stroke:#515050;stroke-width:40;stroke-miterlimit:3;"/><line x1="603.065" y1="744.344" x2="603.065" y2="857.115" vector-effect="non-scaling-stroke" stroke-width="15" stroke="rgb(81,80,80)" stroke-linejoin="miter" stroke-linecap="butt" stroke-miterlimit="3"/></g><path d=" M 903.431 840.74 Q 994.541 794.19 1075.593 832.349 C 1122.063 854.227 1137.488 836.755 1110.016 793.357 L 1099.345 776.499 C 1089.043 760.225 1066.531 740.352 1049.104 732.148 C 978.261 698.799 902.723 752.001 880.379 821.102 C 873.663 841.873 883.993 850.672 903.431 840.74 Z " fill="none" vector-effect="non-scaling-stroke" stroke-width="15" stroke="rgb(81,80,80)" stroke-linejoin="miter" stroke-linecap="square" stroke-miterlimit="3"/></g></g></svg>
