<?xml version="1.0" encoding="iso-8859-1"?>
<!-- Generator: Adobe Illustrator 19.0.0, SVG Export Plug-In . SVG Version: 6.00 Build 0)  -->
<svg xmlns="http://www.w3.org/2000/svg" xmlns:xlink="http://www.w3.org/1999/xlink" version="1.1" id="Capa_1" x="0px" y="0px" viewBox="0 0 512.001 512.001" style="enable-background:new 0 0 512.001 512.001;" xml:space="preserve" width="512px" height="512px">
<g>
	<g>
		<path d="M446.529,80.27L378.451,9.294C372.784,3.387,364.84,0,356.656,0H87.268C70.615,0,57.065,13.548,57.065,30.202v451.596    c0,16.654,13.549,30.203,30.203,30.203h337.465c16.654,0,30.203-13.549,30.203-30.203V101.177    C454.935,93.348,451.951,85.923,446.529,80.27z M365.815,39.49l50.484,52.633h-50.484V39.49z M424.732,481.978H87.268    c-0.1,0-0.181-0.081-0.181-0.181v-67.431h73.909c0.078,0.001,0.156,0.002,0.234,0.002c0.411,0,0.822-0.017,1.23-0.051    c2.25-0.18,4.359-0.857,6.221-1.919c0.01-0.006,0.02-0.011,0.03-0.017c0.025-0.015,0.05-0.029,0.075-0.044    c1.711-0.992,3.246-2.335,4.486-3.999c0.004-0.005,0.008-0.011,0.012-0.016c0.032-0.043,0.064-0.086,0.096-0.13    c0.291-0.399,0.563-0.814,0.815-1.241l42.494-69.913l26.181,42.944c0.156,0.262,0.32,0.521,0.494,0.777    c0.009,0.014,0.019,0.027,0.028,0.041c0.026,0.038,0.052,0.075,0.078,0.113c0.904,1.297,1.98,2.412,3.18,3.33    c0.022,0.017,0.044,0.034,0.067,0.051c0.024,0.018,0.047,0.036,0.071,0.053c0.043,0.032,0.086,0.064,0.13,0.096    c0.011,0.008,0.023,0.017,0.035,0.025c1.941,1.412,4.168,2.315,6.477,2.681l0.013,0.002c0.069,0.011,0.138,0.021,0.207,0.031    c0.009,0.001,0.018,0.003,0.027,0.004c0.068,0.01,0.136,0.019,0.204,0.027c0.063,0.008,0.126,0.016,0.188,0.023    c0.014,0.001,0.027,0.003,0.041,0.005c0.558,0.063,1.121,0.095,1.685,0.095c1.091,0,2.188-0.119,3.27-0.362    c0.013-0.003,0.025-0.006,0.037-0.009c0.077-0.017,0.154-0.035,0.231-0.054c0.034-0.008,0.068-0.017,0.102-0.025    c0.052-0.013,0.103-0.026,0.155-0.04c0.049-0.013,0.097-0.026,0.146-0.039c0.032-0.009,0.064-0.018,0.096-0.027    c0.063-0.018,0.125-0.035,0.188-0.054c0.003-0.001,0.007-0.002,0.01-0.003c1.375-0.405,2.71-1.016,3.961-1.834    c0.04-0.026,0.079-0.052,0.119-0.078c0.025-0.016,0.049-0.033,0.074-0.05c0.308-0.208,0.606-0.425,0.894-0.651l29.865-22.968    l37.798,47.444c0.209,0.267,0.427,0.528,0.654,0.781c0.013,0.015,0.027,0.03,0.04,0.045c0.022,0.025,0.045,0.049,0.067,0.074    c1.32,1.447,2.869,2.58,4.547,3.389c0.021,0.01,0.041,0.02,0.062,0.03c0.028,0.013,0.057,0.027,0.085,0.04    c1.636,0.77,3.435,1.253,5.329,1.384c0.018,0.001,0.035,0.003,0.052,0.004c0.033,0.002,0.066,0.004,0.1,0.006    c0.043,0.003,0.086,0.005,0.129,0.007c0.26,0.013,0.521,0.021,0.782,0.021c0.032,0,0.064-0.001,0.096-0.001h80.225v67.431h0.003    C424.913,481.897,424.832,481.978,424.732,481.978z M424.914,384.344h-0.001h-73.099l-42.509-53.356    c-1.103-1.407-2.408-2.565-3.842-3.464c-0.005-0.003-0.011-0.007-0.016-0.01c-0.043-0.027-0.087-0.054-0.13-0.08    c-0.014-0.008-0.027-0.017-0.041-0.025c-0.037-0.023-0.075-0.045-0.112-0.067c-0.017-0.01-0.034-0.02-0.052-0.031    c-0.034-0.02-0.069-0.04-0.104-0.06c-0.019-0.011-0.039-0.022-0.058-0.034c-0.032-0.018-0.064-0.037-0.097-0.055    c-0.023-0.013-0.046-0.026-0.069-0.039c-0.029-0.016-0.058-0.032-0.087-0.048c-0.025-0.014-0.051-0.027-0.076-0.041    c-0.027-0.015-0.055-0.03-0.083-0.044c-0.029-0.015-0.057-0.03-0.086-0.045c-0.023-0.012-0.045-0.024-0.068-0.036    c-0.034-0.018-0.069-0.036-0.104-0.053l-0.053-0.027c-0.038-0.019-0.077-0.038-0.115-0.057c-0.015-0.007-0.03-0.015-0.044-0.022    c-0.042-0.02-0.083-0.04-0.125-0.06c-0.012-0.006-0.024-0.011-0.036-0.017c-0.042-0.02-0.084-0.039-0.126-0.059    c-0.013-0.006-0.026-0.012-0.039-0.018c-0.043-0.02-0.087-0.039-0.13-0.059c-0.011-0.005-0.022-0.01-0.033-0.015    c-0.043-0.019-0.087-0.038-0.13-0.057c-0.012-0.005-0.025-0.011-0.037-0.016c-0.044-0.019-0.089-0.038-0.133-0.056    c-0.01-0.004-0.021-0.009-0.032-0.013c-0.046-0.019-0.092-0.038-0.138-0.056c-0.009-0.004-0.018-0.007-0.027-0.011    c-0.051-0.02-0.101-0.04-0.152-0.06c-0.003-0.001-0.007-0.003-0.01-0.004c-0.051-0.02-0.102-0.039-0.153-0.058    c-0.007-0.003-0.013-0.005-0.02-0.008c-0.048-0.018-0.096-0.036-0.144-0.053l-0.029-0.011c-0.049-0.018-0.099-0.035-0.148-0.052    c-0.006-0.002-0.011-0.004-0.017-0.006c-0.051-0.018-0.103-0.035-0.154-0.052l-0.018-0.006c-0.052-0.017-0.104-0.034-0.155-0.051    c-0.005-0.002-0.01-0.003-0.016-0.005c-0.052-0.017-0.105-0.033-0.157-0.049c-0.005-0.002-0.01-0.003-0.014-0.005    c-0.053-0.016-0.106-0.032-0.159-0.048c-0.004-0.001-0.008-0.002-0.013-0.004c-0.052-0.015-0.104-0.03-0.156-0.045l-0.021-0.006    c-0.048-0.013-0.096-0.026-0.144-0.039c-0.012-0.003-0.025-0.007-0.037-0.01c-0.044-0.012-0.089-0.023-0.133-0.035    c-0.015-0.004-0.029-0.008-0.044-0.011c-0.044-0.011-0.089-0.022-0.133-0.033c-0.013-0.003-0.026-0.007-0.04-0.01    c-0.043-0.01-0.087-0.021-0.13-0.031c-0.016-0.004-0.033-0.008-0.049-0.011c-0.044-0.01-0.088-0.02-0.132-0.029    c-0.013-0.003-0.026-0.006-0.039-0.009c-0.045-0.01-0.091-0.019-0.136-0.029l-0.042-0.009c-0.041-0.008-0.082-0.016-0.122-0.024    c-0.022-0.004-0.043-0.008-0.065-0.012c-0.035-0.007-0.07-0.013-0.105-0.02c-0.025-0.005-0.05-0.009-0.075-0.013    c-0.034-0.006-0.068-0.012-0.101-0.018c-0.026-0.004-0.052-0.009-0.078-0.013c-0.032-0.005-0.063-0.01-0.095-0.015    c-0.028-0.005-0.057-0.009-0.085-0.013c-0.03-0.005-0.059-0.009-0.089-0.013c-0.032-0.005-0.065-0.009-0.098-0.014    c-0.024-0.003-0.047-0.006-0.071-0.01c-0.036-0.005-0.073-0.01-0.109-0.014c-0.023-0.003-0.046-0.006-0.069-0.009    c-0.037-0.004-0.074-0.009-0.111-0.013c-0.02-0.002-0.041-0.005-0.061-0.007c-0.041-0.005-0.083-0.009-0.124-0.013    c-0.017-0.002-0.033-0.003-0.05-0.005c-0.043-0.004-0.087-0.008-0.13-0.012c-0.016-0.001-0.033-0.003-0.049-0.004    c-0.045-0.004-0.089-0.008-0.134-0.011c-0.013-0.001-0.026-0.002-0.039-0.003c-0.049-0.004-0.098-0.007-0.147-0.01    c-0.009,0-0.018-0.001-0.027-0.002c-0.051-0.003-0.101-0.006-0.152-0.009c-0.009,0-0.019-0.001-0.028-0.001    c-0.052-0.003-0.104-0.005-0.155-0.007c-0.006,0-0.012,0-0.017-0.001c-0.116-0.005-0.233-0.008-0.349-0.01h-0.003    c-3.278-0.057-6.599,0.955-9.401,3.109l-28.449,21.879l-30.255-49.627c-0.672-1.154-1.504-2.227-2.486-3.182    c-1.241-1.211-2.664-2.178-4.197-2.883c-0.005-0.002-0.01-0.005-0.015-0.007c-0.011-0.005-0.023-0.01-0.034-0.016    c-1.954-0.895-4.024-1.336-6.077-1.356c-0.033,0-0.066,0-0.099-0.001c-0.016,0-0.031,0-0.047,0    c-2.116-0.003-4.253,0.44-6.268,1.367c-0.009,0.004-0.019,0.009-0.028,0.013c-0.007,0.003-0.014,0.007-0.021,0.01    c-1.533,0.709-2.957,1.678-4.197,2.894c-0.014,0.014-0.029,0.028-0.043,0.042c-0.024,0.023-0.047,0.046-0.07,0.07    c-0.929,0.928-1.719,1.961-2.362,3.069l-50.888,83.724H87.087V30.202c0-0.099,0.081-0.18,0.181-0.18h248.526v76.674    c0,0.073,0.001,0.146,0.002,0.219c-0.001,0.073-0.002,0.146-0.002,0.219c0,8.29,6.721,15.011,15.011,15.011h74.11V384.344z" fill="#5e5e5e"/>
	</g>
</g>
<g>
	<g>
		<path d="M153.005,172.94c-23.246,0-42.16,18.913-42.16,42.16s18.913,42.16,42.16,42.16c23.247,0,42.16-18.913,42.16-42.16    S176.251,172.94,153.005,172.94z M153.005,227.237c-6.693,0-12.138-5.445-12.138-12.138s5.445-12.138,12.138-12.138    c6.693,0,12.138,5.445,12.138,12.138S159.697,227.237,153.005,227.237z" fill="#5e5e5e"/>
	</g>
</g>
<g>
</g>
<g>
</g>
<g>
</g>
<g>
</g>
<g>
</g>
<g>
</g>
<g>
</g>
<g>
</g>
<g>
</g>
<g>
</g>
<g>
</g>
<g>
</g>
<g>
</g>
<g>
</g>
<g>
</g>
</svg>
