<?xml version="1.0" encoding="iso-8859-1"?>
<!-- Generator: Adobe Illustrator 18.1.1, SVG Export Plug-In . SVG Version: 6.00 Build 0)  -->
<svg xmlns="http://www.w3.org/2000/svg" xmlns:xlink="http://www.w3.org/1999/xlink" version="1.1" id="Capa_1" x="0px" y="0px" viewBox="0 0 473.733 473.733" style="enable-background:new 0 0 473.733 473.733;" xml:space="preserve" width="512px" height="512px">
<g>
	<g>
		<path d="M22.648,398.65c2.55,6.233,8.783,10.483,15.583,10.483h123.533c5.383,36.55,37.117,64.6,74.8,64.6s69.417-28.05,74.8-64.6    h123.817l0,0c0.85,0,1.7,0,2.55-0.283c6.233-0.85,11.333-5.1,13.6-10.767c2.267-6.517,0.567-13.317-4.25-17.85    c-0.283-0.283-0.567-0.567-0.85-0.85c-1.7-1.7-8.5-9.35-15.017-25.5c-7.083-17.283-15.867-48.167-15.867-96.05    c0-94.633-35.7-144.5-65.45-169.717c-19.833-16.717-39.667-24.933-52.7-28.9c-0.567-11.617-3.4-27.483-14.167-40.233    C275.665,10.2,261.782,0,237.132,0c-24.367,0-38.25,10.483-45.617,18.983c-11.05,13.033-14.167,29.183-14.45,41.083    c-13.317,3.967-33.15,12.183-52.7,28.333c-54.683,44.767-66.017,116.733-66.017,168.867c0,46.467-8.783,77.35-16.15,95.2    c-7.933,18.983-15.583,27.483-15.583,27.483l0,0C21.515,384.767,20.098,392.133,22.648,398.65z M236.848,439.733    c-18.983,0-35.133-13.033-40.233-30.6h80.467C271.982,426.7,255.832,439.733,236.848,439.733z M92.348,257.267    c0-152.433,99.733-166.883,103.7-167.45c4.533-0.567,8.783-2.833,11.617-6.517c2.833-3.683,3.967-8.217,3.4-13.033    c-0.85-5.383-1.417-21.25,6.233-30.033c1.417-1.7,5.95-7.083,19.833-7.083s18.417,5.383,20.117,7.083    c7.083,8.217,6.8,23.8,5.95,28.9c-0.85,4.533,0.283,9.35,3.117,13.033c2.833,3.683,6.8,6.233,11.617,6.8    c0.283,0,25.5,3.683,50.717,24.933c35.417,29.75,53.267,78.2,53.267,143.933c0,57.8,11.05,94.917,22.1,117.583H69.682    C80.448,351.9,92.348,313.933,92.348,257.267z" fill="#FFFFFF"/>
	</g>
</g>
<g>
</g>
<g>
</g>
<g>
</g>
<g>
</g>
<g>
</g>
<g>
</g>
<g>
</g>
<g>
</g>
<g>
</g>
<g>
</g>
<g>
</g>
<g>
</g>
<g>
</g>
<g>
</g>
<g>
</g>
</svg>
