<?xml version="1.0" standalone="no"?><!-- Generator: Gravit.io --><svg xmlns="http://www.w3.org/2000/svg" xmlns:xlink="http://www.w3.org/1999/xlink" style="isolation:isolate" viewBox="0 0 496 496" width="496" height="496"><g id="null"><g id="null"><g id="null"><path d=" M 388.688 0 L 361.224 27.464 C 327.248 9.952 288.776 0 248 0 L 240 0 L 240 24.2 C 120.184 28.44 24 127.168 24 248 C 24 305.152 45.304 359.008 84.088 400.6 L 66.984 417.704 L 72.64 423.36 C 87.104 437.824 103.04 450.264 120.112 460.576 L 100.688 480 L 0 480 L 0 496 L 107.312 496 L 134.656 468.656 C 169.296 486.496 207.904 496 248 496 C 314.248 496 376.52 470.2 423.36 423.36 L 429.016 417.704 L 411.912 400.6 C 448.88 360.96 469.912 310.168 471.808 256 L 496 256 L 496 248 C 496 157.96 447.76 78.992 375.776 35.536 L 395.312 16 L 496 16 L 496 0 L 388.688 0 Z  M 248 136 C 309.76 136 360 186.24 360 248 L 360 256 L 375.608 256 C 373.856 284.512 362.808 311.184 343.888 332.576 L 332.848 321.536 L 327.192 327.192 C 306.048 348.352 277.92 360 248 360 C 218.08 360 189.952 348.352 168.808 327.192 L 163.152 321.536 L 152.112 332.576 C 131.424 309.184 120 279.504 120 248 C 120 180.12 173.152 124.568 240 120.408 L 240 136 L 248 136 Z  M 40 248 C 40 135.984 129 44.424 240 40.2 L 240 104.4 C 164.328 108.592 104 171.304 104 248 C 104 283.776 117.096 317.464 140.8 343.888 L 95.408 389.28 C 59.632 350.72 40 300.88 40 248 Z  M 248 480 C 212.264 480 177.792 471.928 146.584 456.728 L 181.656 421.656 L 170.344 410.344 L 131.808 448.88 C 116.792 440.16 102.656 429.728 89.704 417.608 L 163.32 343.992 C 186.712 364.688 216.48 376 248 376 C 279.512 376 309.288 364.688 332.68 343.992 L 406.296 417.608 C 363.192 457.904 307.296 480 248 480 Z  M 400.6 389.28 L 355.2 343.888 C 377.12 319.448 389.816 288.784 391.608 256 L 455.8 256 C 453.928 305.888 434.552 352.672 400.6 389.28 Z  M 479.864 240 L 375.752 240 C 371.776 175.784 320.216 124.224 256 120.248 L 256 16.136 C 289.368 17.272 320.944 25.528 349.32 39.368 L 314.344 74.344 L 325.656 85.656 L 364.072 47.24 C 431.144 86.176 477.056 157.696 479.864 240 Z " fill="rgb(8,114,193)"/><rect x="480" y="32" width="16" height="16" transform="matrix(1,0,0,1,0,0)" fill="rgb(8,114,193)"/><rect x="416" y="32" width="48" height="16" transform="matrix(1,0,0,1,0,0)" fill="rgb(8,114,193)"/><rect x="0" y="448" width="48" height="16" transform="matrix(1,0,0,1,0,0)" fill="rgb(8,114,193)"/><rect x="64" y="448" width="16" height="16" transform="matrix(1,0,0,1,0,0)" fill="rgb(8,114,193)"/><path d=" M 190.112 176 L 152 176 L 152 192 L 177.888 192 L 201.888 280 L 224 280 L 296 280 L 327.064 280 L 337.064 200 L 196.656 200 L 190.112 176 Z  M 318.936 216 L 312.936 264 L 214.112 264 L 201.016 216 L 318.936 216 Z " fill="rgb(8,114,193)"/><path d=" M 200 304 C 200 317.232 210.768 328 224 328 C 237.232 328 248 317.232 248 304 C 248 290.768 237.232 280 224 280 C 210.768 280 200 290.768 200 304 Z  M 224 296 C 228.416 296 232 299.584 232 304 C 232 308.416 228.416 312 224 312 C 219.584 312 216 308.416 216 304 C 216 299.584 219.584 296 224 296 Z " fill="rgb(8,114,193)"/><path d=" M 272 304 C 272 317.232 282.768 328 296 328 C 309.232 328 320 317.232 320 304 C 320 290.768 309.232 280 296 280 C 282.768 280 272 290.768 272 304 Z  M 296 296 C 300.416 296 304 299.584 304 304 C 304 308.416 300.416 312 296 312 C 291.584 312 288 308.416 288 304 C 288 299.584 291.584 296 296 296 Z " fill="rgb(8,114,193)"/><rect x="448" y="208" width="16" height="16" transform="matrix(1,0,0,1,0,0)" fill="rgb(8,114,193)"/><rect x="416" y="208" width="16" height="16" transform="matrix(1,0,0,1,0,0)" fill="rgb(8,114,193)"/><rect x="384" y="208" width="16" height="16" transform="matrix(1,0,0,1,0,0)" fill="rgb(8,114,193)"/></g></g></g></svg>
