<?xml version="1.0" standalone="no"?><!-- Generator: Gravit.io --><svg xmlns="http://www.w3.org/2000/svg" xmlns:xlink="http://www.w3.org/1999/xlink" style="isolation:isolate" viewBox="0 0 20 20" width="20" height="20"><g id="null"><path d="M 2.175 8 L 17.825 8 C 18.749 8 19.5 8.751 19.5 9.675 L 19.5 9.675 C 19.5 10.599 18.749 11.35 17.825 11.35 L 2.175 11.35 C 1.251 11.35 0.5 10.599 0.5 9.675 L 0.5 9.675 C 0.5 8.751 1.251 8 2.175 8 Z" style="stroke:none;fill:#FFFFFF;stroke-miterlimit:10;"/></g><g id="null"><path d="M 8.155 17.825 L 8.155 2.175 C 8.155 1.251 8.906 0.5 9.83 0.5 L 9.83 0.5 C 10.755 0.5 11.505 1.251 11.505 2.175 L 11.505 17.825 C 11.505 18.749 10.755 19.5 9.83 19.5 L 9.83 19.5 C 8.906 19.5 8.155 18.749 8.155 17.825 Z" style="stroke:none;fill:#FFFFFF;stroke-miterlimit:10;"/></g></svg>
