<?xml version="1.0" standalone="no"?><!-- Generator: Gravit.io --><svg xmlns="http://www.w3.org/2000/svg" xmlns:xlink="http://www.w3.org/1999/xlink" style="isolation:isolate" viewBox="0 0 436.333 436.333" width="436.333" height="436.333"><g id="null"><g id="null"><path d=" M 406.043 71.791 C 406.043 33.374 374.917 2.248 336.501 2.248 L 99.832 2.248 C 61.416 2.248 30.29 33.374 30.29 71.791 L 30.29 364.542 C 30.29 402.959 61.416 434.085 99.832 434.085 L 336.501 434.085 C 374.917 434.085 406.043 402.959 406.043 364.542 L 406.043 71.791 L 406.043 71.791 Z  M 372.394 364.542 C 372.394 384.452 356.41 400.435 336.501 400.435 L 99.832 400.435 C 79.923 400.435 63.939 384.452 63.939 364.542 L 63.939 71.791 C 63.939 51.881 79.923 35.898 99.832 35.898 L 336.501 35.898 C 356.41 35.898 372.394 51.881 372.394 71.791 L 372.394 364.542 L 372.394 364.542 Z " fill="rgb(255,255,255)"/><path d=" M 406.043 130.135 C 406.043 97.904 410.811 71.873 372.394 71.873 L 63.939 71.791 C 63.939 70 30.29 97.904 30.29 130.135 L 30.29 375.741 C 30.29 407.971 61.416 434.085 99.832 434.085 L 336.501 434.085 C 374.917 434.085 406.043 407.971 406.043 375.741 L 406.043 130.135 L 406.043 130.135 Z  M 372.394 375.741 C 372.394 392.445 356.41 405.854 336.501 405.854 L 99.832 405.854 C 79.923 405.854 63.939 392.445 63.939 375.741 L 63.939 130.135 C 63.939 113.431 44.03 100.022 63.939 100.022 L 372.394 100.022 C 392.303 100.022 372.394 113.431 372.394 130.135 L 372.394 375.741 L 372.394 375.741 Z " fill="rgb(255,255,255)"/></g></g></svg>
