<?xml version="1.0" encoding="iso-8859-1"?>
<!-- Generator: Adobe Illustrator 19.0.0, SVG Export Plug-In . SVG Version: 6.00 Build 0)  -->
<svg xmlns="http://www.w3.org/2000/svg" xmlns:xlink="http://www.w3.org/1999/xlink" version="1.1" id="Layer_1" x="0px" y="0px" viewBox="0 0 496 496" style="enable-background:new 0 0 496 496;" xml:space="preserve" width="512px" height="512px">
<g>
	<g>
		<g>
			<path d="M388.688,0l-27.464,27.464C327.248,9.952,288.776,0,248,0h-8v24.2C120.184,28.44,24,127.168,24,248     c0,57.152,21.304,111.008,60.088,152.6l-17.104,17.104l5.656,5.656c14.464,14.464,30.4,26.904,47.472,37.216L100.688,480H0v16     h107.312l27.344-27.344C169.296,486.496,207.904,496,248,496c66.248,0,128.52-25.8,175.36-72.64l5.656-5.656L411.912,400.6     c36.968-39.64,58-90.432,59.896-144.6H496v-8c0-90.04-48.24-169.008-120.224-212.464L395.312,16H496V0H388.688z M248,136     c61.76,0,112,50.24,112,112v8h15.608c-1.752,28.512-12.8,55.184-31.72,76.576l-11.04-11.04l-5.656,5.656     C306.048,348.352,277.92,360,248,360c-29.92,0-58.048-11.648-79.192-32.808l-5.656-5.656l-11.04,11.04     C131.424,309.184,120,279.504,120,248c0-67.88,53.152-123.432,120-127.592V136H248z M40,248c0-112.016,89-203.576,200-207.8v64.2     c-75.672,4.192-136,66.904-136,143.6c0,35.776,13.096,69.464,36.8,95.888L95.408,389.28C59.632,350.72,40,300.88,40,248z      M248,480c-35.736,0-70.208-8.072-101.416-23.272l35.072-35.072l-11.312-11.312l-38.536,38.536     c-15.016-8.72-29.152-19.152-42.104-31.272l73.616-73.616C186.712,364.688,216.48,376,248,376     c31.512,0,61.288-11.312,84.68-32.008l73.616,73.616C363.192,457.904,307.296,480,248,480z M400.6,389.28l-45.4-45.392     c21.92-24.44,34.616-55.104,36.408-87.888H455.8C453.928,305.888,434.552,352.672,400.6,389.28z M479.864,240H375.752     C371.776,175.784,320.216,124.224,256,120.248V16.136c33.368,1.136,64.944,9.392,93.32,23.232l-34.976,34.976l11.312,11.312     l38.416-38.416C431.144,86.176,477.056,157.696,479.864,240z" fill="#FFFFFF"/>
			<rect x="480" y="32" width="16" height="16" fill="#FFFFFF"/>
			<rect x="416" y="32" width="48" height="16" fill="#FFFFFF"/>
			<rect y="448" width="48" height="16" fill="#FFFFFF"/>
			<rect x="64" y="448" width="16" height="16" fill="#FFFFFF"/>
			<path d="M190.112,176H152v16h25.888l24,88H224h72h31.064l10-80H196.656L190.112,176z M318.936,216l-6,48h-98.824l-13.096-48     H318.936z" fill="#FFFFFF"/>
			<path d="M200,304c0,13.232,10.768,24,24,24s24-10.768,24-24s-10.768-24-24-24S200,290.768,200,304z M224,296c4.416,0,8,3.584,8,8     c0,4.416-3.584,8-8,8s-8-3.584-8-8C216,299.584,219.584,296,224,296z" fill="#FFFFFF"/>
			<path d="M272,304c0,13.232,10.768,24,24,24s24-10.768,24-24s-10.768-24-24-24S272,290.768,272,304z M296,296c4.416,0,8,3.584,8,8     c0,4.416-3.584,8-8,8c-4.416,0-8-3.584-8-8C288,299.584,291.584,296,296,296z" fill="#FFFFFF"/>
			<rect x="448" y="208" width="16" height="16" fill="#FFFFFF"/>
			<rect x="416" y="208" width="16" height="16" fill="#FFFFFF"/>
			<rect x="384" y="208" width="16" height="16" fill="#FFFFFF"/>
		</g>
	</g>
</g>
<g>
</g>
<g>
</g>
<g>
</g>
<g>
</g>
<g>
</g>
<g>
</g>
<g>
</g>
<g>
</g>
<g>
</g>
<g>
</g>
<g>
</g>
<g>
</g>
<g>
</g>
<g>
</g>
<g>
</g>
</svg>
