<?xml version="1.0" encoding="iso-8859-1"?>
<!-- Generator: Adobe Illustrator 19.0.0, SVG Export Plug-In . SVG Version: 6.00 Build 0)  -->
<svg xmlns="http://www.w3.org/2000/svg" xmlns:xlink="http://www.w3.org/1999/xlink" version="1.1" id="Capa_1" x="0px" y="0px" viewBox="0 0 512.002 512.002"
	style="enable-background:new 0 0 512.002 512.002;" xml:space="preserve" width="512px" height="512px">
<g>
	<g>
		<path d="M488.989,28.765h-74.787c-12.656,0-23.011,10.355-23.011,23.011v34.517c0,3.09,0.633,6.029,1.754,8.727l-18.225,16.638
		c-39.677-40.488-94.944-65.634-156.114-65.634C97.861,46.024,0,143.902,0,264.63s97.861,218.607,218.607,218.607
		s218.608-97.878,218.608-218.607c0-53.357-19.14-102.233-50.901-140.191l18.714-17.08c2.813,1.237,5.914,1.944,9.176,1.944h74.787
		c12.656,0,23.011-10.355,23.011-23.011V51.776C512,39.12,501.645,28.765,488.989,28.765z M209.977,465.76
		c-107.03-4.539-192.718-93-192.718-201.13c0-70.42,36.369-132.476,91.28-168.471l35.242,59.351
		c-34.713,23.857-57.489,63.821-57.489,109.119c0,70.167,54.628,127.551,123.685,132.004V465.76z M103.551,264.63
		c0-63.442,51.62-115.056,115.056-115.056c63.442,0,115.056,51.614,115.056,115.056s-51.614,115.056-115.056,115.056
		C155.17,379.686,103.551,328.072,103.551,264.63z M227.236,465.76v-69.126c42.836-2.761,80.102-25.893,102.233-59.818
		l60.157,33.907C355.489,425.559,295.752,462.855,227.236,465.76z M419.956,264.63c0,32.762-7.916,63.69-21.855,91.055
		l-60.134-33.895c8.302-17.304,12.956-36.692,12.956-57.166c0-73.067-59.231-132.315-132.315-132.315
		c-21.608,0-41.978,5.212-59.99,14.388l-35.27-59.409c28.378-15.297,60.824-24.007,95.26-24.007
		c56.021,0,106.755,23.017,143.291,60.071l-22.551,20.589c-3.515,3.216-3.763,8.67-0.552,12.19
		c3.211,3.521,8.67,3.768,12.191,0.558l22.505-20.549C402.49,171.032,419.956,215.829,419.956,264.63z M494.742,86.293
		c0,3.118-2.635,5.753-5.753,5.753h-74.787c-3.118,0-5.753-2.635-5.753-5.753V51.776c0-3.118,2.635-5.753,5.753-5.753h74.787
		c3.118,0,5.753,2.635,5.753,5.753V86.293z" fill="#828282"></path>
	</g>
</g>
</svg>
