<?xml version="1.0" encoding="iso-8859-1"?>
<!-- Generator: Adobe Illustrator 18.1.1, SVG Export Plug-In . SVG Version: 6.00 Build 0)  -->
<svg xmlns="http://www.w3.org/2000/svg" xmlns:xlink="http://www.w3.org/1999/xlink" version="1.1" id="Capa_1" x="0px" y="0px" viewBox="0 0 481.667 481.667" style="enable-background:new 0 0 481.667 481.667;" xml:space="preserve" width="512px" height="512px">
<g>
	<g>
		<path d="M51,94.633v368.9c0,9.35,7.65,18.133,17,18.133h345.667c9.35,0,17-8.783,17-18.133v-368.9c0-9.35-7.65-18.133-17-18.133    h-51V52.133c0-9.35-7.65-18.133-17-18.133h-57.233c-7.367-11.333-22.667-34-47.6-34c-22.667,0-38.25,19.833-46.467,34h-55.533    c-9.35,0-17,8.783-17,18.133v25.783c-0.85-0.283-1.983-1.417-2.833-1.417H68C58.65,76.5,51,85.283,51,94.633z M155.833,68h49.583    c7.367,0,13.883-4.25,16.15-11.05c2.55-7.083,10.767-22.1,19.267-22.1c9.067,0,18.133,15.3,20.967,22.667    C264.35,64.033,270.583,68,277.667,68h51v79.333H155.833V68z M85,110.5h34c0.85,0,1.983,1.133,2.833,0.85v54.117    c0,9.35,7.65,15.867,17,15.867h206.833c9.35,0,17-6.517,17-15.867V110.5h34v337.167H85V110.5z" fill="#FFFFFF"/>
	</g>
</g>
<g>
</g>
<g>
</g>
<g>
</g>
<g>
</g>
<g>
</g>
<g>
</g>
<g>
</g>
<g>
</g>
<g>
</g>
<g>
</g>
<g>
</g>
<g>
</g>
<g>
</g>
<g>
</g>
<g>
</g>
</svg>
