<?xml version="1.0" encoding="iso-8859-1"?>
<!-- Generator: Adobe Illustrator 19.0.0, SVG Export Plug-In . SVG Version: 6.00 Build 0)  -->
<svg xmlns="http://www.w3.org/2000/svg" xmlns:xlink="http://www.w3.org/1999/xlink" version="1.1" id="Capa_1" x="0px" y="0px" viewBox="0 0 512 512" style="enable-background:new 0 0 512 512;" xml:space="preserve" width="512px" height="512px">
<g>
	<g>
		<path d="M408.009,111.907h-10.954v-10.953c0-24.813-20.187-45-45-45h-10.953V45c0-24.813-20.187-45-45-45h-192.11    c-24.813,0-45,20.187-45,45v310.093c0,24.813,20.187,45,45,45h10.954v10.953c0,24.813,20.187,45,45,45h10.953V467    c0,24.813,20.187,45,45,45h192.11c24.813,0,45-20.187,45-45V156.907C453.009,132.094,432.822,111.907,408.009,111.907z     M114.945,100.954v269.139h-10.954c-8.271,0-15-6.729-15-15V45c0-8.271,6.729-15,15-15h192.11c8.271,0,15,6.729,15,15v10.954    H159.945C135.132,55.954,114.945,76.141,114.945,100.954z M170.898,156.907v269.139h-10.953c-8.271,0-15-6.729-15-15V100.954    c0-8.271,6.729-15,15-15h192.109c8.271,0,15,6.729,15,15v10.953H215.898C191.085,111.907,170.898,132.094,170.898,156.907z     M423.009,467c0,8.271-6.729,15-15,15h-192.11c-8.271,0-15-6.729-15-15V156.907c0-8.271,6.729-15,15-15h192.11    c8.271,0,15,6.729,15,15V467z" fill="#5e5e5e"/>
	</g>
</g>
<g>
	<g>
		<path d="M358.846,271.792c-13.373-12.086-32.636-12.777-46.845-1.683l-0.05,0.038l-0.05-0.039    c-14.207-11.096-33.472-10.401-46.844,1.684c-13.374,12.085-16.008,31.18-6.405,46.435c0.742,1.175,1.641,2.242,2.674,3.169    l40.605,36.469c2.851,2.56,6.437,3.84,10.022,3.84c3.585,0,7.173-1.28,10.023-3.84l40.604-36.469    c1.032-0.928,1.932-1.994,2.671-3.169C374.854,302.972,372.22,283.877,358.846,271.792z M340.598,300.818l-28.644,25.726    l-28.645-25.726c-1.204-3.054,0.274-5.331,1.864-6.767c1.828-1.65,4.746-3.044,8.266-0.297l9.283,7.25    c5.426,4.236,13.04,4.237,18.466-0.001l9.281-7.249c3.52-2.748,6.437-1.354,8.266,0.297    C340.325,295.488,341.802,297.765,340.598,300.818z" fill="#5e5e5e"/>
	</g>
</g>
<g>
	<g>
		<path d="M392.863,411.554c-8.284,0-15,6.716-15,15v25.855c0,8.284,6.716,15,15,15s15-6.716,15-15v-25.855    C407.863,418.27,401.147,411.554,392.863,411.554z" fill="#5e5e5e"/>
	</g>
</g>
<g>
	<g>
		<path d="M231.044,156.499c-8.284,0-15,6.716-15,15v25.855c0,8.284,6.716,15,15,15s15-6.716,15-15v-25.855    C246.044,163.215,239.328,156.499,231.044,156.499z" fill="#5e5e5e"/>
	</g>
</g>
<g>
</g>
<g>
</g>
<g>
</g>
<g>
</g>
<g>
</g>
<g>
</g>
<g>
</g>
<g>
</g>
<g>
</g>
<g>
</g>
<g>
</g>
<g>
</g>
<g>
</g>
<g>
</g>
<g>
</g>
</svg>
