<?xml version="1.0" encoding="iso-8859-1"?>
<!-- Generator: Adobe Illustrator 19.0.0, SVG Export Plug-In . SVG Version: 6.00 Build 0)  -->
<svg xmlns="http://www.w3.org/2000/svg" xmlns:xlink="http://www.w3.org/1999/xlink" version="1.1" id="Capa_1" x="0px" y="0px" viewBox="0 0 511.999 511.999" style="enable-background:new 0 0 511.999 511.999;" xml:space="preserve" width="512px" height="512px">
<g>
	<g>
		<path d="M494.337,429.794h-8.438V297.101h8.435c9.739,0,17.662-7.923,17.662-17.663v-46.878c0-9.739-7.923-17.663-17.662-17.663    h-8.435V82.204h8.435c9.739,0,17.662-7.923,17.662-17.663V17.664c0-9.739-7.923-17.663-17.662-17.663h-46.878    c-9.739,0-17.662,7.923-17.662,17.663v8.434H82.203v-8.434c0-9.739-7.923-17.663-17.663-17.663H17.663    C7.923,0.001,0,7.924,0,17.664v46.877c0,9.739,7.923,17.663,17.663,17.663h8.434v132.693h-8.431    c-9.739,0-17.663,7.923-17.663,17.663v46.878c0,9.739,7.923,17.663,17.663,17.663h8.431v132.693h-8.431    c-9.739,0-17.663,7.923-17.663,17.663v46.877c0,9.739,7.923,17.663,17.663,17.663h46.877c9.739,0,17.663-7.923,17.663-17.663    v-8.434h347.589v8.434c0,9.739,7.924,17.663,17.663,17.663h46.877c9.739,0,17.663-7.923,17.663-17.663v-46.878    C512,437.717,504.076,429.794,494.337,429.794z M459.801,30.01h22.186v22.186h-22.186V30.01z M30.009,30.01h22.186v22.186H30.009    V30.01z M52.198,481.988H30.012v-22.186h22.186V481.988z M52.198,267.092H30.012v-22.186h22.186V267.092z M455.89,214.897h-8.435    c-9.739,0-17.662,7.923-17.662,17.663v46.878c0,9.739,7.923,17.663,17.662,17.663h8.435v132.693h-8.431    c-9.739,0-17.663,7.923-17.663,17.663v8.434H82.206v-0.001v-8.434c0-9.74-7.923-17.663-17.663-17.663h-8.437V297.101h8.438    c9.739,0,17.663-7.923,17.663-17.663v-46.878c0-9.739-7.923-17.663-17.663-17.663h-8.438V82.204h8.434    c9.74,0,17.663-7.923,17.663-17.663v-8.434h347.589v8.434c0,9.739,7.923,17.663,17.662,17.663h8.435V214.897z M459.801,244.906    c-0.026,0,11.119,0,11.093,0h11.093v22.186h-22.186V244.906z M481.991,481.988h-22.187v-22.186h22.187V481.988z" fill="#5e5e5e"/>
	</g>
</g>
<g>
	<g>
		<path d="M349.852,370.067l-73.764-240.455c-2.17-6.87-10.485-10.486-18.802-10.486c-8.315,0-16.632,3.254-18.801,10.486    l-73.763,240.454c-0.361,1.084-0.723,1.808-0.723,2.893c0,7.593,10.486,12.656,18.441,12.656c5.424,0,9.763-2.17,11.209-6.87    l15.909-53.875h95.095l15.91,53.875c1.446,4.7,5.786,6.87,10.848,6.87c8.678,0,18.802-5.785,18.802-13.017    C350.213,371.875,349.852,371.152,349.852,370.067z M216.428,299.919l40.859-135.956l40.135,135.956H216.428z" fill="#5e5e5e"/>
	</g>
</g>
<g>
</g>
<g>
</g>
<g>
</g>
<g>
</g>
<g>
</g>
<g>
</g>
<g>
</g>
<g>
</g>
<g>
</g>
<g>
</g>
<g>
</g>
<g>
</g>
<g>
</g>
<g>
</g>
<g>
</g>
</svg>
